<?xml version="1.0" encoding="UTF-8" standalone="no"?>
<!DOCTYPE svg PUBLIC "-//W3C//DTD SVG 1.1//EN" "http://www.w3.org/Graphics/SVG/1.1/DTD/svg11.dtd">
<svg width="100%" height="100%" viewBox="0 0 594 117" version="1.1" xmlns="http://www.w3.org/2000/svg" xmlns:xlink="http://www.w3.org/1999/xlink" xml:space="preserve" xmlns:serif="http://www.serif.com/" style="fill-rule:evenodd;clip-rule:evenodd;stroke-linejoin:round;stroke-miterlimit:2;">
    <g transform="matrix(1,0,0,1,-31.894949,-39.692787)">
        <g transform="matrix(0.643186,0,0,0.643186,-8.975799,12.466561)">
            <g transform="matrix(1.164434,0,0,1.220041,-212.648829,-248.120583)">
                <path d="M259.424,268.395C266.27,263.879 266.47,264.159 274.442,262.26C277.101,261.627 276.508,259.36 277.695,256.583C282.274,245.869 289.059,242.303 292.593,240.716C293.699,240.22 299.837,237.463 307.534,238.187C318.988,239.263 325.126,246.396 325.367,246.635C327.637,248.892 327.159,249.65 327.16,255.5L327.152,349.502C327.169,353.83 328.243,365.003 322.687,372.631C319.101,377.553 313.481,383.678 299.463,385.061C296.145,385.389 288.05,384.667 282.432,382.694C278.124,381.18 273.264,377.734 271.219,375.8C262.625,367.676 261.158,356.001 261.04,355.677C260.357,353.804 254.72,353.702 249.321,349.756C239.165,342.332 234.623,329.633 238.653,317.548C242.151,307.06 247.337,306.002 248.161,303.431C248.685,301.796 240.743,282.681 259.424,268.395ZM284.158,267.512C284.81,248.364 303.339,242.86 314.378,248.735C319.504,251.463 318.782,252.557 318.79,256.5C318.803,263.3 318.904,314.501 318.824,341.502C318.776,357.875 319.019,360.455 317.439,364.478C315.837,368.556 314.226,370.101 311.889,371.978C301.839,380.045 287.007,375.68 283.695,374.094C271.192,368.105 270.062,356.75 270.097,356.46C270.296,354.817 271.795,355.153 276.543,353.622C277.742,353.235 284.013,351.211 289.242,344.307C291.67,341.1 289.513,338.17 287.478,337.568C283.81,336.484 282.339,339.549 280.457,341.458C279.722,342.205 275.495,346.494 268.523,346.87C245.973,348.089 237.145,320.643 255.289,309.142C261.439,305.243 254.128,302.625 255.249,290.475C255.922,283.192 261.43,277.266 263.556,275.571C265.485,274.033 273.821,269.565 275.615,271.391C276.308,272.095 276.901,278.134 281.221,283.708C286.62,290.673 293.225,293.035 294.506,293.484C299.213,295.133 300.678,291.442 300.401,289.517C299.973,286.547 296.983,285.861 295.664,285.168C283.915,278.993 284.204,268.097 284.158,267.512Z" style="fill:#bfbf44;"/>
            </g>
            <g transform="matrix(1.164434,0,0,1.220041,-212.648829,-248.120583)">
                <path d="M407.9,316.547C403.953,345.055 388.793,359.323 385.71,362.688C385.187,363.259 382.22,366.851 371.3,374.198C367.205,376.952 357.425,381.32 352.539,382.639C331.513,388.317 320.611,387.066 320.104,386.924C318.83,386.569 319.094,385.703 320.254,385.263C320.641,385.115 325.587,383.95 335.377,377.309C347.046,369.393 351.814,363.731 357.771,356.727C360.517,353.498 365.848,345.295 367.591,341.546C369.146,338.201 375.09,327.796 378.696,309.535C378.746,309.279 379.466,303.778 379.476,303.499C379.549,301.29 377.956,301.125 374.558,300.286C372.551,299.791 372.577,299.744 370.555,299.273C370.314,299.217 367.829,298.639 367.58,298.399C366.304,297.173 368.541,295.333 371.134,292.2C371.899,291.276 393.179,265.347 397.326,260.36C400.964,255.986 401.055,255.662 401.33,255.306C401.777,254.727 401.773,254.646 402.496,254.648C403.722,254.653 403.179,255.389 406.313,263.57C407.282,266.097 407.17,266.135 417.694,295.425C418.684,298.181 418.992,298.748 421.286,305.569C422.5,309.18 423.285,309.4 422.299,310.263C421.564,310.905 421.431,310.458 416.532,309.356C410.215,307.934 409.894,308.048 409.346,308.244C408.322,308.608 408.82,309.616 407.9,316.547Z" style="fill:#7f1391;"/>
            </g>
            <g transform="matrix(1.164434,0,0,1.220041,-212.648829,-248.120583)">
                <path d="M335.819,302.5C335.915,245.009 335.488,244.888 336.318,243.355C337.12,241.872 345.433,240.84 349.518,241.343C354.104,241.907 359.335,242.269 369.166,248.974C371.457,250.536 377.389,256.731 379.048,258.852C381.482,261.961 379.823,262.322 377.434,265.447C374.36,269.469 357.101,291.008 356.126,292.196C348.915,300.975 348.855,300.933 348.563,301.533C348.502,301.658 348.05,302.586 348.689,303.272C348.862,303.457 354.476,305.297 361.53,307.405C364.823,308.388 364.721,309.051 364.739,312.498C364.782,320.949 360.427,337.011 355.316,345.386C345.97,360.703 334.637,373.82 335.165,365.986C335.675,358.421 335.922,358.61 335.819,302.5Z" style="fill:#7f1391;"/>
            </g>
        </g>
        <g transform="matrix(1.663514,0,0,1.663514,-188.876718,-27.106271)">
            <g transform="matrix(42,0,0,42,231.188561,90.509523)">
                <path d="M0.718,-0L0.561,-0L0.499,-0.163L0.212,-0.163L0.153,-0L0,-0L0.279,-0.716L0.432,-0.716L0.718,-0ZM0.452,-0.283L0.354,-0.549L0.257,-0.283L0.452,-0.283Z" style="fill:#bfbf44;fill-rule:nonzero;"/>
            </g>
            <g transform="matrix(42,0,0,42,261.519615,90.509523)">
                <path d="M0.072,-0.716L0.336,-0.716C0.396,-0.716 0.441,-0.711 0.473,-0.702C0.515,-0.69 0.551,-0.668 0.581,-0.636C0.611,-0.605 0.633,-0.566 0.649,-0.52C0.665,-0.475 0.672,-0.418 0.672,-0.351C0.672,-0.292 0.665,-0.241 0.65,-0.199C0.632,-0.147 0.607,-0.104 0.574,-0.072C0.549,-0.048 0.515,-0.029 0.472,-0.015C0.44,-0.005 0.398,-0 0.344,-0L0.072,-0L0.072,-0.716ZM0.217,-0.595L0.217,-0.121L0.325,-0.121C0.365,-0.121 0.394,-0.123 0.412,-0.127C0.436,-0.133 0.455,-0.143 0.47,-0.157C0.486,-0.171 0.499,-0.194 0.508,-0.226C0.518,-0.258 0.523,-0.302 0.523,-0.357C0.523,-0.413 0.518,-0.455 0.508,-0.485C0.499,-0.514 0.485,-0.538 0.467,-0.554C0.45,-0.571 0.427,-0.582 0.4,-0.588C0.38,-0.592 0.341,-0.595 0.282,-0.595L0.217,-0.595Z" style="fill:#bfbf44;fill-rule:nonzero;"/>
            </g>
            <g transform="matrix(42,0,0,42,291.85067,90.509523)">
                <path d="M0.073,-0L0.073,-0.716L0.218,-0.716L0.218,-0.434L0.501,-0.434L0.501,-0.716L0.646,-0.716L0.646,-0L0.501,-0L0.501,-0.313L0.218,-0.313L0.218,-0L0.073,-0Z" style="fill:#bfbf44;fill-rule:nonzero;"/>
            </g>
            <g transform="matrix(42,0,0,42,322.181725,90.509523)">
                <path d="M0.072,-0.716L0.336,-0.716C0.396,-0.716 0.441,-0.711 0.473,-0.702C0.515,-0.69 0.551,-0.668 0.581,-0.636C0.611,-0.605 0.633,-0.566 0.649,-0.52C0.665,-0.475 0.672,-0.418 0.672,-0.351C0.672,-0.292 0.665,-0.241 0.65,-0.199C0.632,-0.147 0.607,-0.104 0.574,-0.072C0.549,-0.048 0.515,-0.029 0.472,-0.015C0.44,-0.005 0.398,-0 0.344,-0L0.072,-0L0.072,-0.716ZM0.217,-0.595L0.217,-0.121L0.325,-0.121C0.365,-0.121 0.394,-0.123 0.412,-0.127C0.436,-0.133 0.455,-0.143 0.47,-0.157C0.486,-0.171 0.499,-0.194 0.508,-0.226C0.518,-0.258 0.523,-0.302 0.523,-0.357C0.523,-0.413 0.518,-0.455 0.508,-0.485C0.499,-0.514 0.485,-0.538 0.467,-0.554C0.45,-0.571 0.427,-0.582 0.4,-0.588C0.38,-0.592 0.341,-0.595 0.282,-0.595L0.217,-0.595Z" style="fill:#bfbf44;fill-rule:nonzero;"/>
            </g>
            <g transform="matrix(42,0,0,42,364.181725,90.509523)">
                <path d="M0.531,-0.263L0.671,-0.219C0.649,-0.141 0.614,-0.083 0.564,-0.045C0.514,-0.007 0.45,0.012 0.374,0.012C0.278,0.012 0.2,-0.02 0.139,-0.085C0.078,-0.15 0.047,-0.239 0.047,-0.352C0.047,-0.471 0.078,-0.563 0.14,-0.629C0.201,-0.695 0.282,-0.728 0.382,-0.728C0.47,-0.728 0.541,-0.702 0.596,-0.65C0.628,-0.62 0.653,-0.576 0.669,-0.519L0.526,-0.484C0.517,-0.521 0.5,-0.551 0.473,-0.572C0.446,-0.594 0.413,-0.604 0.375,-0.604C0.322,-0.604 0.279,-0.585 0.246,-0.547C0.213,-0.509 0.196,-0.448 0.196,-0.362C0.196,-0.272 0.213,-0.207 0.245,-0.169C0.278,-0.131 0.32,-0.111 0.372,-0.111C0.41,-0.111 0.444,-0.124 0.471,-0.148C0.499,-0.172 0.519,-0.211 0.531,-0.263Z" style="fill:#7f1391;fill-rule:nonzero;"/>
            </g>
            <g transform="matrix(42,0,0,42,394.512779,90.509523)">
                <path d="M0.04,-0.267C0.04,-0.312 0.051,-0.356 0.074,-0.399C0.096,-0.442 0.128,-0.474 0.169,-0.497C0.21,-0.519 0.256,-0.53 0.307,-0.53C0.386,-0.53 0.45,-0.505 0.5,-0.454C0.55,-0.403 0.575,-0.339 0.575,-0.261C0.575,-0.182 0.55,-0.117 0.499,-0.066C0.449,-0.014 0.385,0.012 0.308,0.012C0.261,0.012 0.215,0.001 0.172,-0.021C0.129,-0.042 0.096,-0.073 0.074,-0.115C0.051,-0.156 0.04,-0.207 0.04,-0.267ZM0.181,-0.259C0.181,-0.208 0.193,-0.168 0.217,-0.141C0.242,-0.114 0.272,-0.1 0.308,-0.1C0.343,-0.1 0.373,-0.114 0.398,-0.141C0.422,-0.168 0.434,-0.208 0.434,-0.26C0.434,-0.311 0.422,-0.35 0.398,-0.377C0.373,-0.405 0.343,-0.418 0.308,-0.418C0.272,-0.418 0.242,-0.405 0.217,-0.377C0.193,-0.35 0.181,-0.311 0.181,-0.259Z" style="fill:#7f1391;fill-rule:nonzero;"/>
            </g>
            <g transform="matrix(42,0,0,42,420.168053,90.509523)">
                <path d="M0.174,-0.36L0.05,-0.383C0.064,-0.433 0.088,-0.47 0.122,-0.494C0.156,-0.518 0.207,-0.53 0.274,-0.53C0.336,-0.53 0.381,-0.523 0.411,-0.509C0.441,-0.494 0.462,-0.476 0.474,-0.453C0.487,-0.431 0.493,-0.39 0.493,-0.331L0.491,-0.17C0.491,-0.125 0.493,-0.091 0.498,-0.07C0.502,-0.048 0.51,-0.025 0.522,-0L0.387,-0C0.383,-0.009 0.379,-0.023 0.374,-0.041C0.371,-0.049 0.37,-0.054 0.369,-0.057C0.345,-0.034 0.32,-0.017 0.293,-0.005C0.267,0.006 0.238,0.012 0.208,0.012C0.155,0.012 0.113,-0.003 0.082,-0.032C0.051,-0.061 0.036,-0.097 0.036,-0.142C0.036,-0.171 0.043,-0.197 0.057,-0.22C0.071,-0.243 0.09,-0.26 0.115,-0.273C0.141,-0.285 0.177,-0.296 0.225,-0.305C0.289,-0.317 0.333,-0.328 0.358,-0.338L0.358,-0.352C0.358,-0.378 0.351,-0.397 0.338,-0.408C0.325,-0.42 0.301,-0.425 0.265,-0.425C0.24,-0.425 0.221,-0.42 0.208,-0.411C0.194,-0.401 0.183,-0.384 0.174,-0.36ZM0.358,-0.249C0.34,-0.243 0.312,-0.236 0.274,-0.228C0.236,-0.22 0.211,-0.212 0.2,-0.204C0.182,-0.191 0.173,-0.175 0.173,-0.156C0.173,-0.137 0.18,-0.12 0.194,-0.106C0.209,-0.092 0.227,-0.085 0.249,-0.085C0.274,-0.085 0.297,-0.093 0.32,-0.109C0.336,-0.122 0.347,-0.137 0.353,-0.155C0.356,-0.167 0.358,-0.189 0.358,-0.222L0.358,-0.249Z" style="fill:#7f1391;fill-rule:nonzero;"/>
            </g>
            <g transform="matrix(42,0,0,42,443.526451,90.509523)">
                <path d="M0.524,-0.365L0.389,-0.341C0.384,-0.368 0.374,-0.388 0.358,-0.402C0.342,-0.416 0.321,-0.422 0.295,-0.422C0.261,-0.422 0.233,-0.411 0.213,-0.387C0.193,-0.363 0.183,-0.324 0.183,-0.269C0.183,-0.207 0.193,-0.164 0.214,-0.138C0.234,-0.113 0.262,-0.1 0.297,-0.1C0.323,-0.1 0.344,-0.108 0.361,-0.122C0.377,-0.137 0.389,-0.163 0.396,-0.199L0.531,-0.176C0.517,-0.114 0.49,-0.067 0.45,-0.036C0.41,-0.004 0.357,0.012 0.291,0.012C0.215,0.012 0.154,-0.012 0.109,-0.06C0.064,-0.108 0.042,-0.174 0.042,-0.259C0.042,-0.344 0.064,-0.411 0.109,-0.459C0.155,-0.506 0.216,-0.53 0.293,-0.53C0.356,-0.53 0.406,-0.517 0.444,-0.49C0.481,-0.462 0.508,-0.421 0.524,-0.365Z" style="fill:#7f1391;fill-rule:nonzero;"/>
            </g>
            <g transform="matrix(42,0,0,42,466.88485,90.509523)">
                <path d="M0.208,-0.716L0.208,-0.453C0.253,-0.504 0.306,-0.53 0.367,-0.53C0.399,-0.53 0.427,-0.524 0.453,-0.513C0.478,-0.501 0.497,-0.486 0.51,-0.468C0.523,-0.45 0.532,-0.429 0.536,-0.407C0.541,-0.385 0.543,-0.351 0.543,-0.304L0.543,-0L0.406,-0L0.406,-0.274C0.406,-0.328 0.404,-0.363 0.398,-0.377C0.393,-0.392 0.384,-0.404 0.371,-0.412C0.358,-0.421 0.341,-0.425 0.321,-0.425C0.299,-0.425 0.278,-0.42 0.26,-0.409C0.242,-0.398 0.229,-0.381 0.221,-0.359C0.213,-0.336 0.208,-0.303 0.208,-0.26L0.208,-0L0.071,-0L0.071,-0.716L0.208,-0.716Z" style="fill:#7f1391;fill-rule:nonzero;"/>
            </g>
        </g>
    </g>
</svg>
