<?xml version="1.0" encoding="UTF-8" standalone="no"?>
<!DOCTYPE svg PUBLIC "-//W3C//DTD SVG 1.1//EN" "http://www.w3.org/Graphics/SVG/1.1/DTD/svg11.dtd">
<svg width="100%" height="100%" viewBox="0 0 106 105" version="1.1" xmlns="http://www.w3.org/2000/svg" xmlns:xlink="http://www.w3.org/1999/xlink" xml:space="preserve" xmlns:serif="http://www.serif.com/" style="fill-rule:evenodd;clip-rule:evenodd;stroke-linejoin:round;stroke-miterlimit:2;">
    <g transform="matrix(1,0,0,1,-7.706017,-6.362136)">
        <g transform="matrix(0.473032,0,0,0.473032,-18.025806,-4.539557)">
            <g transform="matrix(1.430566,0,0,1.498882,-284.919683,-333.787199)">
                <g transform="matrix(0.785995,0,0,1.53739,128.299523,230.842897)">
                    <path d="M226.546,9.563C254.605,9.563 242.953,35.151 242.953,58.573C242.953,81.996 242.308,93.269 214.411,96.181C191.383,98.585 177.077,92.042 177.315,80.098C177.436,74.028 164.332,74.473 157.184,72.481C149.267,70.275 147.2,65.869 146.738,63.533C144.613,52.791 169.341,56.107 162.858,44.64C156.743,33.826 180.806,23.931 195.827,18.007C212.168,11.563 220.109,9.563 226.546,9.563Z" style="fill:rgb(191,191,68);"/>
                </g>
                <path d="M259.424,268.395C266.27,263.879 266.47,264.159 274.442,262.26C277.101,261.627 276.508,259.36 277.695,256.583C282.274,245.869 289.059,242.303 292.593,240.716C293.699,240.22 299.837,237.463 307.534,238.187C318.988,239.263 325.126,246.396 325.367,246.635C327.637,248.892 327.159,249.65 327.16,255.5L327.152,349.502C327.169,353.83 328.243,365.003 322.687,372.631C319.101,377.553 313.481,383.678 299.463,385.061C296.145,385.389 288.05,384.667 282.432,382.694C278.124,381.18 273.264,377.734 271.219,375.8C262.625,367.676 261.158,356.001 261.04,355.677C260.357,353.804 254.72,353.702 249.321,349.756C239.165,342.332 234.623,329.633 238.653,317.548C242.151,307.06 247.337,306.002 248.161,303.431C248.685,301.796 240.743,282.681 259.424,268.395ZM284.158,267.512C284.81,248.364 303.339,242.86 314.378,248.735C319.504,251.463 318.782,252.557 318.79,256.5C318.803,263.3 318.904,314.501 318.824,341.502C318.776,357.875 319.019,360.455 317.439,364.478C315.837,368.556 314.226,370.101 311.889,371.978C301.839,380.045 287.007,375.68 283.695,374.094C271.192,368.105 270.062,356.75 270.097,356.46C270.296,354.817 271.795,355.153 276.543,353.622C277.742,353.235 284.013,351.211 289.242,344.307C291.67,341.1 289.513,338.17 287.478,337.568C283.81,336.484 282.339,339.549 280.457,341.458C279.722,342.205 275.495,346.494 268.523,346.87C245.973,348.089 237.145,320.643 255.289,309.142C261.439,305.243 254.128,302.625 255.249,290.475C255.922,283.192 261.43,277.266 263.556,275.571C265.485,274.033 273.821,269.565 275.615,271.391C276.308,272.095 276.901,278.134 281.221,283.708C286.62,290.673 293.225,293.035 294.506,293.484C299.213,295.133 300.678,291.442 300.401,289.517C299.973,286.547 296.983,285.861 295.664,285.168C283.915,278.993 284.204,268.097 284.158,267.512Z" style="fill:rgb(107,107,107);"/>
            </g>
        </g>
        <g transform="matrix(0.473032,0,0,0.473032,-18.025806,-4.539557)">
            <g transform="matrix(1.456805,0,0,1.494971,-339.836186,-335.272422)">
                <path d="M407.9,316.547C403.953,345.055 388.793,359.323 385.71,362.688C385.187,363.259 382.22,366.851 371.3,374.198C367.205,376.952 357.425,381.32 352.539,382.639C331.513,388.317 320.611,387.066 320.104,386.924C318.83,386.569 319.094,385.703 320.254,385.263C320.641,385.115 325.587,383.95 335.377,377.309C347.046,369.393 351.814,363.731 357.771,356.727C360.517,353.498 365.848,345.295 367.591,341.546C369.146,338.201 375.09,327.796 378.696,309.535C378.746,309.279 379.466,303.778 379.476,303.499C379.549,301.29 377.956,301.125 374.558,300.286C372.551,299.791 372.577,299.744 370.555,299.273C370.314,299.217 367.829,298.639 367.58,298.399C366.304,297.173 368.541,295.333 371.134,292.2C371.899,291.276 393.179,265.347 397.326,260.36C400.964,255.986 401.055,255.662 401.33,255.306C401.777,254.727 401.773,254.646 402.496,254.648C403.722,254.653 403.179,255.389 406.313,263.57C407.282,266.097 407.17,266.135 417.694,295.425C418.684,298.181 418.992,298.748 421.286,305.569C422.5,309.18 423.285,309.4 422.299,310.263C421.564,310.905 421.431,310.458 416.532,309.356C410.215,307.934 409.894,308.048 409.346,308.244C408.322,308.608 408.82,309.616 407.9,316.547Z" style="fill:rgb(152,28,173);stroke:white;stroke-width:1.43px;"/>
            </g>
        </g>
    </g>
</svg>
